<!--?xml version="1.0" encoding="utf-8"?-->
<!-- Generator: Adobe Illustrator 23.0.1, SVG Export Plug-In . SVG Version: 6.00 Build 0)  -->
<svg version="1.1" id="Layer_1" xmlns="http://www.w3.org/2000/svg" xmlns:xlink="http://www.w3.org/1999/xlink" x="0px" y="0px" viewBox="0 0 800 600" style="" xml:space="preserve" class="">
<style type="text/css">
	.st0{fill:#2D353C;}
	.st1{fill:#007C40;}
	.st2{font-family:'Montserrat-Bold';}
	.st3{font-size:47.92px;}
	.st4{letter-spacing:9;}
	.st5{letter-spacing:10;}
	.st6{fill:none;stroke:#007C40;stroke-width:8;stroke-miterlimit:10;}
	.st7{fill:#20A82A;}
	.st8{fill:#187C1D;}
	.st9{fill:#105112;}
	.st10{fill:#FFFFFF;}
	.st11{fill:#5BD35E;}
</style>
<image style="overflow:visible;" width="1030" height="1030" xlink:href="FF905840131FF527.png" transform="matrix(0.9711 0 0 0.9711 -121.7498 5147.7661)">
</image>
<title>Plant-Protector-resources</title>
<path class="st0 hraGOOiY_0" width="83.4" height="72.4" d="M757.8 5122.4 L841.1999999999999 5122.4 L841.1999999999999 5194.799999999999 L757.8 5194.799999999999 Z"></path>
<text transform="matrix(1 0 0 1 91.5703 486.8)" class="st1 st2 st3 st4">P</text>
<text transform="matrix(1 0 0 1 135.7502 486.8)" class="st1 st2 st3 st5">L</text>
<text transform="matrix(1 0 0 1 174.5601 486.8)" class="st1 st2 st3 st4">ANT </text>
<text transform="matrix(1 0 0 1 331.5 486.8)" class="st1 st2 st3 st4">P</text>
<text transform="matrix(1 0 0 1 375.68 486.8)" class="st1 st2 st3 st4">R</text>
<text transform="matrix(1 0 0 1 420.48 486.8)" class="st1 st2 st3 st4">O</text>
<text transform="matrix(1 0 0 1 470.03 486.8)" class="st1 st2 st3 st4">T</text>
<text transform="matrix(1 0 0 1 509.22 486.8)" class="st1 st2 st3 st4">E</text>
<text transform="matrix(1 0 0 1 550.86 486.8)" class="st1 st2 st3 st4">C</text>
<text transform="matrix(1 0 0 1 595.24 486.8)" class="st1 st2 st3 st4">T</text>
<text transform="matrix(1 0 0 1 633.95 486.8)" class="st1 st2 st3 st4">OR</text>
<g>
	<path class="st6 hraGOOiY_1" d="M233.8,281.8c3.3,3.1,8,4.1,12.3,2.8l82,69.1c-43.4,7.2-94.1,1.6-127.9-26.5c-36.6-32.2-50.8-87.6-50.7-135.6
		c33.2-6.8,70.8-5.6,102.4,5.9c51.5,18.6,73.7,70,81.4,120.7c1.2,8.1,2.2,16.3,2.6,24.5l-81.3-68.5c0.5-4.1-1-8.2-3.9-11
		c-5-4.6-12.9-4.2-17.4,0.9c-0.2,0.2-0.4,0.4-0.6,0.7C228.7,269.9,229.2,277.3,233.8,281.8z M347.4,239.9
		c-21.3-53-0.8-105.2,34.7-146.5c7.4-8.8,15.5-17.1,24.1-24.8c36.2,30.9,67.5,77.3,68.2,125.6c-0.6,45.3-28.2,89-61.6,119.7
		c0.3-36.4,0.6-72.8,0.9-109.2c3.6-2.3,5.8-6.2,5.8-10.5c0-6.9-5.5-12.5-12.4-12.7c-6.8-0.1-12.1,5.7-12.5,12.3
		c-0.2,4.3,2,8.4,5.6,10.8c-0.3,36.4-0.6,72.8-0.9,109.2C377.3,293.2,358.4,267.3,347.4,239.9L347.4,239.9z M610.8,327
		c-33.8,28.2-84.5,33.9-127.9,26.8l81.9-69.3c4.2,1.3,8.8,0.3,12.1-2.6c4.9-4.3,5.3-12.1,1.4-17.2c-4.2-5.3-11.9-6.3-17.2-2.1
		c0,0-0.1,0.1-0.1,0.1c-3.4,2.8-5.2,7.1-4.6,11.5L475,342.9c1.1-28.1,7.4-57.1,18.7-82.4c11.1-24.8,28.4-45.7,53-58
		c23.2-11.6,50-15.1,75.7-14.8c13,0,26,1.2,38.8,3.6C661.4,239.3,647.4,294.6,610.8,327z"></path>
	<path class="st6 hraGOOiY_2" d="M382.59999999999997,375.6A22.8,22.8 0,1,1 428.2,375.6A22.8,22.8 0,1,1 382.59999999999997,375.6"></path>
</g>
<path style="fill:none;" width="836.6" height="469.1" d="M1056.3 5193.4 L1892.9 5193.4 L1892.9 5662.5 L1056.3 5662.5 Z" class="hraGOOiY_3"></path>
<text transform="matrix(1 0 0 1 1056.3058 5235.9805)"><tspan x="0" y="0" style="font-family:'MyriadPro-Regular'; font-size:60px;">Page 3:</tspan><tspan x="0" y="72" style="font-family:'MyriadPro-Regular'; font-size:60px;">- icons</tspan></text>
<path style="fill:none;" width="477" height="453.5" d="M-674.8 5201.2 L-197.79999999999995 5201.2 L-197.79999999999995 5654.7 L-674.8 5654.7 Z" class="hraGOOiY_4"></path>
<text transform="matrix(1 0 0 1 -674.7606 5243.7983)"><tspan x="0" y="0" style="font-family:'MyriadPro-Regular'; font-size:60px;">&gt;THESE ARE FLEX </tspan><tspan x="0" y="72" style="font-family:'MyriadPro-Regular'; font-size:60px;">BOXES 1&amp;2 in</tspan><tspan x="0" y="144" style="font-family:'MyriadPro-Regular'; font-size:60px;">SettingsScreen</tspan></text>
<path style="fill:none;" width="2345.7" height="1340.1" d="M-3698.7 847.5 L-1353 847.5 L-1353 2187.6 L-3698.7 2187.6 Z" class="hraGOOiY_5"></path>
<text transform="matrix(1 0 0 1 -3698.7146 989.5388)"><tspan x="0" y="0" style="font-family:'MyriadPro-Regular'; font-size:200px;">CSS/styling TO DO: </tspan><tspan x="0" y="240" style="font-family:'MyriadPro-Regular'; font-size:200px;">- style it</tspan><tspan x="0" y="480" style="font-family:'MyriadPro-Regular'; font-size:200px;">-font (lato or oswald) </tspan><tspan x="0" y="720" style="font-family:'MyriadPro-Regular'; font-size:200px;">- icons (use ionicons?) </tspan><tspan x="0" y="960" style="font-family:'MyriadPro-Regular'; font-size:200px;">- colors (green) </tspan></text>
<path class="st7 hraGOOiY_6" width="422.2" height="422.2" d="M-2012.5 3943.4 L-1590.3 3943.4 L-1590.3 4365.6 L-2012.5 4365.6 Z"></path>
<path class="st8 hraGOOiY_7" width="422.2" height="422.2" d="M-2012.5 4436.3 L-1590.3 4436.3 L-1590.3 4858.5 L-2012.5 4858.5 Z"></path>
<path class="st9 hraGOOiY_8" width="422.2" height="422.2" d="M-2012.5 4936.7 L-1590.3 4936.7 L-1590.3 5358.9 L-2012.5 5358.9 Z"></path>
<g>
	<path class="st7 hraGOOiY_9" d="M-1827,3244c-11.2,11.2-11.6,30.1-0.9,41.8c25.3,27.9,63.4-12.2,41.4-40
		C-1797.6,3234.2-1815.1,3232.1-1827,3244z"></path>
	<path class="st7 hraGOOiY_10" d="M-1979.4,3171.8c3.3,3.1,8,4.1,12.3,2.8l82,69.1c-43.4,7.2-94.1,1.6-128-26.5c-36.6-32.2-50.8-87.5-50.7-135.6
		c33.2-6.8,70.8-5.6,102.4,5.8c51.5,18.6,73.7,70,81.4,120.7c1.2,8.1,2.2,16.3,2.6,24.6l-81.3-68.5c0.5-4.1-1-8.2-4-11
		c-5-4.6-12.9-4.2-17.4,0.9c-0.2,0.2-0.4,0.4-0.6,0.7C-1984.5,3160-1984,3167.3-1979.4,3171.8z M-1865.9,3129.9
		c-21.3-53-0.8-105.2,34.7-146.5c7.4-8.8,15.5-17.1,24.1-24.8c36.2,30.9,67.5,77.3,68.2,125.6c-0.6,45.3-28.2,89-61.6,119.7
		c0.3-36.4,0.6-72.8,0.9-109.2c3.6-2.3,5.8-6.2,5.8-10.5c0-6.9-5.5-12.5-12.4-12.7c-6.8-0.1-12.2,5.7-12.4,12.3
		c-0.2,4.3,2,8.4,5.6,10.8c-0.3,36.4-0.6,72.8-0.9,109.1C-1835.9,3183.2-1854.8,3157.3-1865.9,3129.9L-1865.9,3129.9z M-1602.4,3217
		c-33.8,28.2-84.5,33.9-127.9,26.8l81.9-69.3c4.2,1.3,8.8,0.3,12.1-2.6c4.9-4.3,5.3-12.1,1.4-17.2c-4.2-5.3-11.9-6.3-17.2-2.1
		c0,0-0.1,0.1-0.1,0.1c-3.4,2.8-5.2,7.1-4.6,11.5l-81.3,68.7c1.1-28.1,7.4-57.1,18.7-82.4c11.1-24.8,28.4-45.7,53-58
		c23.2-11.6,50-15.1,75.7-14.8c13,0,26,1.2,38.8,3.6C-1551.8,3129.4-1565.8,3184.6-1602.4,3217z"></path>
	<text transform="matrix(1 0 0 1 -2121.6538 3376.8203)" class="st7 st2 st3 st4">P</text>
	<text transform="matrix(1 0 0 1 -2077.4739 3376.8203)" class="st7 st2 st3 st5">L</text>
	<text transform="matrix(1 0 0 1 -2038.6637 3376.8203)" class="st7 st2 st3 st4">ANT </text>
	<text transform="matrix(1 0 0 1 -1881.724 3376.8203)" class="st7 st2 st3 st4">P</text>
	<text transform="matrix(1 0 0 1 -1837.5438 3376.8203)" class="st7 st2 st3 st4">R</text>
	<text transform="matrix(1 0 0 1 -1792.7438 3376.8203)" class="st7 st2 st3 st4">O</text>
	<text transform="matrix(1 0 0 1 -1743.194 3376.8203)" class="st7 st2 st3 st4">T</text>
	<text transform="matrix(1 0 0 1 -1704.0038 3376.8203)" class="st7 st2 st3 st4">E</text>
	<text transform="matrix(1 0 0 1 -1662.3639 3376.8203)" class="st7 st2 st3 st4">C</text>
	<text transform="matrix(1 0 0 1 -1617.9838 3376.8203)" class="st7 st2 st3 st4">T</text>
	<text transform="matrix(1 0 0 1 -1579.2738 3376.8203)" class="st7 st2 st3 st4">OR</text>
	<path class="st7 hraGOOiY_11" d="M-1830.6,3265.6A22.8,22.8 0,1,1 -1785,3265.6A22.8,22.8 0,1,1 -1830.6,3265.6"></path>
</g>
<path class="st10 hraGOOiY_12" width="1080" height="484.8" d="M-1284.2 3235.4 L-204.20000000000005 3235.4 L-204.20000000000005 3720.2000000000003 L-1284.2 3720.2000000000003 Z"></path>
<g>
	<path class="st7 hraGOOiY_13" d="M-750.7,3497.6c-6.9,6.9-7.1,18.6-0.6,25.8c15.6,17.2,39.1-7.5,25.6-24.7
		C-732.6,3491.5-743.4,3490.2-750.7,3497.6z"></path>
	<path class="st7 hraGOOiY_14" d="M-844.8,3453c2,1.9,5,2.6,7.6,1.7l50.6,42.7c-26.8,4.4-58.1,1-79-16.4c-22.6-19.9-31.4-54.1-31.3-83.7
		c20.5-4.2,43.7-3.5,63.2,3.6c31.8,11.5,45.5,43.2,50.3,74.5c0.8,5,1.3,10.1,1.6,15.2l-50.2-42.3c0.3-2.5-0.6-5-2.4-6.8
		c-3.1-2.8-7.9-2.6-10.8,0.5c-0.1,0.1-0.2,0.3-0.4,0.4C-848,3445.7-847.7,3450.2-844.8,3453z M-774.7,3427.1
		c-13.2-32.7-0.5-65,21.4-90.5c4.6-5.4,9.6-10.6,14.9-15.3c22.4,19.1,41.7,47.7,42.1,77.5c-0.4,28-17.4,55-38,73.9
		c0.2-22.5,0.4-44.9,0.5-67.4c2.2-1.4,3.6-3.8,3.6-6.5c0-4.2-3.4-7.7-7.6-7.8c-4.2-0.1-7.5,3.5-7.7,7.6c-0.1,2.7,1.2,5.2,3.5,6.6
		c-0.2,22.5-0.4,44.9-0.5,67.4C-756.2,3460-767.9,3444-774.7,3427.1L-774.7,3427.1z M-612,3480.9c-20.9,17.4-52.2,20.9-79,16.5
		l50.6-42.8c2.6,0.8,5.4,0.2,7.5-1.6c3.1-2.7,3.3-7.5,0.9-10.6c-2.6-3.3-7.3-3.9-10.6-1.3c0,0,0,0-0.1,0.1c-2.1,1.7-3.2,4.4-2.9,7.1
		l-50.2,42.4c0.7-17.4,4.6-35.3,11.6-50.9c6.9-15.3,17.6-28.2,32.7-35.8c14.3-7.2,30.9-9.3,46.7-9.1c8,0,16.1,0.8,24,2.2
		C-580.8,3426.8-589.5,3460.9-612,3480.9z"></path>
	<text transform="matrix(1 0 0 1 -932.6372 3579.5671)" class="st7 st2" style="font-size:29.588px; letter-spacing:5;">P</text>
	<text transform="matrix(1 0 0 1 -905.3584 3579.5671)" class="st7 st2" style="font-size:29.588px; letter-spacing:6;">L</text>
	<text transform="matrix(1 0 0 1 -881.3955 3579.5671)" class="st7 st2" style="font-size:29.588px; letter-spacing:5;">ANT </text>
	<text transform="matrix(1 0 0 1 -784.4932 3579.5671)" class="st7 st2" style="font-size:29.588px; letter-spacing:5;">P</text>
	<text transform="matrix(1 0 0 1 -757.2148 3579.5671)" class="st7 st2" style="font-size:29.588px; letter-spacing:5;">R</text>
	<text transform="matrix(1 0 0 1 -729.5532 3579.5671)" class="st7 st2" style="font-size:29.588px; letter-spacing:5;">O</text>
	<text transform="matrix(1 0 0 1 -698.9585 3579.5671)" class="st7 st2" style="font-size:29.588px; letter-spacing:5;">T</text>
	<text transform="matrix(1 0 0 1 -674.7607 3579.5671)" class="st7 st2" style="font-size:29.588px; letter-spacing:5;">E</text>
	<text transform="matrix(1 0 0 1 -649.0503 3579.5671)" class="st7 st2" style="font-size:29.588px; letter-spacing:5;">C</text>
	<text transform="matrix(1 0 0 1 -621.6479 3579.5671)" class="st7 st2" style="font-size:29.588px; letter-spacing:5;">T</text>
	<text transform="matrix(1 0 0 1 -597.7466 3579.5671)" class="st7 st2" style="font-size:29.588px; letter-spacing:5;">OR</text>
	<path class="st7 hraGOOiY_15" d="M-753,3510.9A14.1,14.1 0,1,1 -724.8,3510.9A14.1,14.1 0,1,1 -753,3510.9"></path>
</g>
<path class="st7 hraGOOiY_16" width="1080" height="242.4" d="M-1284.2 3661.6 L-204.20000000000005 3661.6 L-204.20000000000005 3904 L-1284.2 3904 Z"></path>
<path style="fill:none;" width="1086.8" height="77.3" d="M-1284.8 3751.1 L-198 3751.1 L-198 3828.4 L-1284.8 3828.4 Z" class="hraGOOiY_17"></path>
<text transform="matrix(1 0 0 1 -1038.0464 3809.4072)" class="st10" style="font-family:'Lato-Light'; font-size:80px;">WEATHER INFO</text>
<path class="st11 hraGOOiY_18" width="1080" height="874.6" d="M-1284.2 3962.6 L-204.20000000000005 3962.6 L-204.20000000000005 4837.2 L-1284.2 4837.2 Z"></path>
<path class="st11 hraGOOiY_19" width="422.2" height="422.2" d="M-2013.4 3450.5 L-1591.2 3450.5 L-1591.2 3872.7 L-2013.4 3872.7 Z"></path>
<path class="st7 hraGOOiY_20" width="1080" height="127.7" d="M-150.8 3376.8 L929.2 3376.8 L929.2 3504.5 L-150.8 3504.5 Z"></path>
<path class="st10 hraGOOiY_21" width="1080" height="305.2" d="M-150.8 3504.5 L929.2 3504.5 L929.2 3809.7 L-150.8 3809.7 Z"></path>
<path style="fill:none;" width="836.6" height="48.9" d="M-73.9 3421.6 L762.7 3421.6 L762.7 3470.5 L-73.9 3470.5 Z" class="hraGOOiY_22"></path>
<text transform="matrix(1 0 0 1 -73.9436 3460.1604)" class="st10" style="font-family:'Lato-Light'; font-size:53px;">CAROLINA REAPER</text>
<path style="fill:none;" width="930.5" height="211.1" d="M-69.8 3537.6 L860.7 3537.6 L860.7 3748.7 L-69.8 3748.7 Z" class="hraGOOiY_23"></path>
<text transform="matrix(1 0 0 1 -69.7575 3567.4563)"><tspan x="0" y="0" style="font-family:'Lato-Light'; font-size:41px;">Lorem ipsum dolor sit amet, consectetuer adipiscing </tspan><tspan x="0" y="49.2" style="font-family:'Lato-Light'; font-size:41px;">elit, sed diam nonummy nibh euismod tincidunt ut </tspan><tspan x="0" y="98.4" style="font-family:'Lato-Light'; font-size:41px;">laoreet dolore magna aliquam erat volutpat. Ut wisi </tspan><tspan x="0" y="147.6" style="font-family:'Lato-Light'; font-size:41px;">enim ad minim veniam, quis nostrud exerci tation ul</tspan></text>
<path class="st7 hraGOOiY_24" width="1080" height="127.7" d="M-150.8 3809.8 L929.2 3809.8 L929.2 3937.5 L-150.8 3937.5 Z"></path>
<path style="fill:none;" width="836.6" height="48.9" d="M-73.9 3854.5 L762.7 3854.5 L762.7 3903.4 L-73.9 3903.4 Z" class="hraGOOiY_25"></path>
<text transform="matrix(1 0 0 1 -73.9436 3893.0955)" class="st10" style="font-family:'Lato-Light'; font-size:53px;">HABENERO</text>
<path class="st7 hraGOOiY_26" width="1080" height="127.7" d="M-150.8 3953.8 L929.2 3953.8 L929.2 4081.5 L-150.8 4081.5 Z"></path>
<path style="fill:none;" width="836.6" height="48.9" d="M-73.9 3998.5 L762.7 3998.5 L762.7 4047.4 L-73.9 4047.4 Z" class="hraGOOiY_27"></path>
<text transform="matrix(1 0 0 1 -73.9436 4037.093)" class="st10" style="font-family:'Lato-Light'; font-size:53px;">GHOST PEPPER</text>
<path style="fill:none;" width="735" height="375.3" d="M-1088.9 4506.7 L-353.9000000000001 4506.7 L-353.9000000000001 4882 L-1088.9 4882 Z" class="hraGOOiY_28"></path>
<text transform="matrix(1 0 0 1 -853.8532 4536.5513)"><tspan x="0" y="0" class="st10" style="font-family:'Lato-Light'; font-size:41px;">INFO HERE???</tspan><tspan x="-69.1" y="49.2" class="st10" style="font-family:'Lato-Light'; font-size:41px;">- BACKGROUND PIC? </tspan><tspan x="-109.1" y="98.4" class="st10" style="font-family:'Lato-Light'; font-size:41px;">- EXPLAINATION OF APP?</tspan><tspan x="-121.8" y="147.6" class="st10" style="font-family:'Lato-Light'; font-size:41px;">- SUPPLEMENTARY INFO....</tspan></text>
<path style="fill:none;" width="699.8" height="215" d="M39.3 4352.3 L739.0999999999999 4352.3 L739.0999999999999 4567.3 L39.3 4567.3 Z" class="hraGOOiY_29"></path>
<text transform="matrix(1 0 0 1 88.0589 4382.126)"><tspan x="0" y="0" style="font-family:'Lato-Light'; font-size:41px;">USE DROP DOWN ACCORDION </tspan><tspan x="59.6" y="49.2" style="font-family:'Lato-Light'; font-size:41px;">EFFECT FROM IONICONS</tspan></text>
<g id="_x35_HCnFG.tif">
	
		<image style="overflow:visible;" width="510" height="250" id="Layer_0_1_" xlink:href="FF905840131FF525.png" transform="matrix(2.1188 0 0 2.0485 -1282.8097 3903.9604)">
	</image>
</g>
<path style="fill:none;" width="332.3" height="41.7" d="M634 5221.4 L966.3 5221.4 L966.3 5263.099999999999 L634 5263.099999999999 Z" class="hraGOOiY_30"></path>
<text transform="matrix(1 0 0 1 787.3323 5251.313)" style="fill:#D9E0E7; font-family:'Lato-Light'; font-size:41px;">X</text>
<path style="fill:none;" width="332.3" height="41.7" d="M634 5144.1 L966.3 5144.1 L966.3 5185.8 L634 5185.8 Z" class="hraGOOiY_31"></path>
<text transform="matrix(1 0 0 1 788.2137 5173.9878)" class="st10" style="font-family:'Lato-Light'; font-size:41px;">+</text>
<g>
	<path class="st7 hraGOOiY_32" d="M93.6,2970.7c-2.4,2.4-2.4,6.3-0.2,8.8c5.3,5.9,13.3-2.6,8.7-8.4C99.8,2968.7,96.1,2968.2,93.6,2970.7z"></path>
	<path class="st7 hraGOOiY_33" d="M61.6,2955.6c0.7,0.6,1.7,0.9,2.6,0.6l17.2,14.5c-9.1,1.5-19.8,0.3-26.9-5.6c-7.7-6.8-10.7-18.4-10.7-28.5
		c7-1.4,14.9-1.2,21.5,1.2c10.8,3.9,15.5,14.7,17.1,25.4c0.3,1.7,0.5,3.4,0.6,5.2L66,2954c0.1-0.9-0.2-1.7-0.8-2.3
		c-1.1-1-2.7-0.9-3.7,0.2c0,0-0.1,0.1-0.1,0.1C60.5,2953.1,60.6,2954.6,61.6,2955.6z M85.5,2946.7c-4.5-11.1-0.2-22.1,7.3-30.8
		c1.6-1.9,3.3-3.6,5.1-5.2c7.6,6.5,14.2,16.3,14.3,26.4c-0.1,9.5-5.9,18.7-13,25.2c0.1-7.7,0.1-15.3,0.2-23c0.8-0.5,1.2-1.3,1.2-2.2
		c0-1.4-1.2-2.6-2.6-2.7c-1.4,0-2.6,1.2-2.6,2.6c0,0.9,0.4,1.8,1.2,2.3c-0.1,7.7-0.1,15.3-0.2,23
		C91.8,2957.9,87.8,2952.5,85.5,2946.7L85.5,2946.7z M140.9,2965.1c-7.1,5.9-17.8,7.1-26.9,5.6l17.2-14.6c0.9,0.3,1.9,0.1,2.6-0.6
		c1-0.9,1.1-2.6,0.3-3.6c-0.9-1.1-2.5-1.3-3.6-0.4c0,0,0,0,0,0c-0.7,0.6-1.1,1.5-1,2.4l-17.1,14.5c0.2-5.9,1.6-12,3.9-17.3
		c2.3-5.2,6-9.6,11.1-12.2c4.9-2.4,10.5-3.2,15.9-3.1c2.7,0,5.5,0.3,8.2,0.8C151.5,2946.6,148.6,2958.2,140.9,2965.1z"></path>
	<text transform="matrix(1 0 0 1 31.6721 2998.6572)" class="st7 st2" style="font-size:10.0774px; letter-spacing:1;">P</text>
	<text transform="matrix(1 0 0 1 40.9631 2998.6572)" class="st7 st2" style="font-size:10.0774px; letter-spacing:2;">L</text>
	<text transform="matrix(1 0 0 1 49.1248 2998.6572)" class="st7 st2" style="font-size:10.0774px; letter-spacing:2;">ANT </text>
	<text transform="matrix(1 0 0 1 82.1287 2998.6572)" class="st7 st2" style="font-size:10.0774px; letter-spacing:1;">P</text>
	<text transform="matrix(1 0 0 1 91.4197 2998.6572)" class="st7 st2" style="font-size:10.0774px; letter-spacing:2;">R</text>
	<text transform="matrix(1 0 0 1 100.8406 2998.6572)" class="st7 st2" style="font-size:10.0774px; letter-spacing:1;">O</text>
	<text transform="matrix(1 0 0 1 111.261 2998.6572)" class="st7 st2" style="font-size:10.0774px; letter-spacing:2;">T</text>
	<text transform="matrix(1 0 0 1 119.5027 2998.6572)" class="st7 st2" style="font-size:10.0774px; letter-spacing:2;">E</text>
	<text transform="matrix(1 0 0 1 128.2595 2998.6572)" class="st7 st2" style="font-size:10.0774px; letter-spacing:1;">C</text>
	<text transform="matrix(1 0 0 1 137.5925 2998.6572)" class="st7 st2" style="font-size:10.0774px; letter-spacing:1;">T</text>
	<text transform="matrix(1 0 0 1 145.7332 2998.6572)" class="st7 st2" style="font-size:10.0774px; letter-spacing:2;">OR</text>
	<path class="st7 hraGOOiY_34" d="M92.9,2975.3A4.8,4.8 0,1,1 102.5,2975.3A4.8,4.8 0,1,1 92.9,2975.3"></path>
</g>
<image style="overflow:visible;" width="1080" height="1920" xlink:href="FF905840131FF52B.png" transform="matrix(1 0 0 1 -139.4667 847.5401)">
</image>
<image style="overflow:visible;" width="1080" height="1920" xlink:href="FF905840131FF52D.png" transform="matrix(1 0 0 1 -1271.6669 847.5401)">
</image>
<style data-made-with="vivus-instant">.hraGOOiY_0{stroke-dasharray:312 314;stroke-dashoffset:313;animation:hraGOOiY_draw_0 7000ms ease-in-out 0ms infinite,hraGOOiY_fade 7000ms linear 0ms infinite;}.hraGOOiY_1{stroke-dasharray:2539 2541;stroke-dashoffset:2540;animation:hraGOOiY_draw_1 7000ms ease-in-out 0ms infinite,hraGOOiY_fade 7000ms linear 0ms infinite;}.hraGOOiY_2{stroke-dasharray:144 146;stroke-dashoffset:145;animation:hraGOOiY_draw_2 7000ms ease-in-out 0ms infinite,hraGOOiY_fade 7000ms linear 0ms infinite;}.hraGOOiY_3{stroke-dasharray:2612 2614;stroke-dashoffset:2613;animation:hraGOOiY_draw_3 7000ms ease-in-out 0ms infinite,hraGOOiY_fade 7000ms linear 0ms infinite;}.hraGOOiY_4{stroke-dasharray:1861 1863;stroke-dashoffset:1862;animation:hraGOOiY_draw_4 7000ms ease-in-out 0ms infinite,hraGOOiY_fade 7000ms linear 0ms infinite;}.hraGOOiY_5{stroke-dasharray:7372 7374;stroke-dashoffset:7373;animation:hraGOOiY_draw_5 7000ms ease-in-out 0ms infinite,hraGOOiY_fade 7000ms linear 0ms infinite;}.hraGOOiY_6{stroke-dasharray:1689 1691;stroke-dashoffset:1690;animation:hraGOOiY_draw_6 7000ms ease-in-out 0ms infinite,hraGOOiY_fade 7000ms linear 0ms infinite;}.hraGOOiY_7{stroke-dasharray:1689 1691;stroke-dashoffset:1690;animation:hraGOOiY_draw_7 7000ms ease-in-out 0ms infinite,hraGOOiY_fade 7000ms linear 0ms infinite;}.hraGOOiY_8{stroke-dasharray:1689 1691;stroke-dashoffset:1690;animation:hraGOOiY_draw_8 7000ms ease-in-out 0ms infinite,hraGOOiY_fade 7000ms linear 0ms infinite;}.hraGOOiY_9{stroke-dasharray:181 183;stroke-dashoffset:182;animation:hraGOOiY_draw_9 7000ms ease-in-out 0ms infinite,hraGOOiY_fade 7000ms linear 0ms infinite;}.hraGOOiY_10{stroke-dasharray:2539 2541;stroke-dashoffset:2540;animation:hraGOOiY_draw_10 7000ms ease-in-out 0ms infinite,hraGOOiY_fade 7000ms linear 0ms infinite;}.hraGOOiY_11{stroke-dasharray:144 146;stroke-dashoffset:145;animation:hraGOOiY_draw_11 7000ms ease-in-out 0ms infinite,hraGOOiY_fade 7000ms linear 0ms infinite;}.hraGOOiY_12{stroke-dasharray:3130 3132;stroke-dashoffset:3131;animation:hraGOOiY_draw_12 7000ms ease-in-out 0ms infinite,hraGOOiY_fade 7000ms linear 0ms infinite;}.hraGOOiY_13{stroke-dasharray:112 114;stroke-dashoffset:113;animation:hraGOOiY_draw_13 7000ms ease-in-out 0ms infinite,hraGOOiY_fade 7000ms linear 0ms infinite;}.hraGOOiY_14{stroke-dasharray:1568 1570;stroke-dashoffset:1569;animation:hraGOOiY_draw_14 7000ms ease-in-out 0ms infinite,hraGOOiY_fade 7000ms linear 0ms infinite;}.hraGOOiY_15{stroke-dasharray:89 91;stroke-dashoffset:90;animation:hraGOOiY_draw_15 7000ms ease-in-out 0ms infinite,hraGOOiY_fade 7000ms linear 0ms infinite;}.hraGOOiY_16{stroke-dasharray:2645 2647;stroke-dashoffset:2646;animation:hraGOOiY_draw_16 7000ms ease-in-out 0ms infinite,hraGOOiY_fade 7000ms linear 0ms infinite;}.hraGOOiY_17{stroke-dasharray:2329 2331;stroke-dashoffset:2330;animation:hraGOOiY_draw_17 7000ms ease-in-out 0ms infinite,hraGOOiY_fade 7000ms linear 0ms infinite;}.hraGOOiY_18{stroke-dasharray:3910 3912;stroke-dashoffset:3911;animation:hraGOOiY_draw_18 7000ms ease-in-out 0ms infinite,hraGOOiY_fade 7000ms linear 0ms infinite;}.hraGOOiY_19{stroke-dasharray:1689 1691;stroke-dashoffset:1690;animation:hraGOOiY_draw_19 7000ms ease-in-out 0ms infinite,hraGOOiY_fade 7000ms linear 0ms infinite;}.hraGOOiY_20{stroke-dasharray:2416 2418;stroke-dashoffset:2417;animation:hraGOOiY_draw_20 7000ms ease-in-out 0ms infinite,hraGOOiY_fade 7000ms linear 0ms infinite;}.hraGOOiY_21{stroke-dasharray:2771 2773;stroke-dashoffset:2772;animation:hraGOOiY_draw_21 7000ms ease-in-out 0ms infinite,hraGOOiY_fade 7000ms linear 0ms infinite;}.hraGOOiY_22{stroke-dasharray:1771 1773;stroke-dashoffset:1772;animation:hraGOOiY_draw_22 7000ms ease-in-out 0ms infinite,hraGOOiY_fade 7000ms linear 0ms infinite;}.hraGOOiY_23{stroke-dasharray:2284 2286;stroke-dashoffset:2285;animation:hraGOOiY_draw_23 7000ms ease-in-out 0ms infinite,hraGOOiY_fade 7000ms linear 0ms infinite;}.hraGOOiY_24{stroke-dasharray:2416 2418;stroke-dashoffset:2417;animation:hraGOOiY_draw_24 7000ms ease-in-out 0ms infinite,hraGOOiY_fade 7000ms linear 0ms infinite;}.hraGOOiY_25{stroke-dasharray:1771 1773;stroke-dashoffset:1772;animation:hraGOOiY_draw_25 7000ms ease-in-out 0ms infinite,hraGOOiY_fade 7000ms linear 0ms infinite;}.hraGOOiY_26{stroke-dasharray:2416 2418;stroke-dashoffset:2417;animation:hraGOOiY_draw_26 7000ms ease-in-out 0ms infinite,hraGOOiY_fade 7000ms linear 0ms infinite;}.hraGOOiY_27{stroke-dasharray:1771 1773;stroke-dashoffset:1772;animation:hraGOOiY_draw_27 7000ms ease-in-out 0ms infinite,hraGOOiY_fade 7000ms linear 0ms infinite;}.hraGOOiY_28{stroke-dasharray:2221 2223;stroke-dashoffset:2222;animation:hraGOOiY_draw_28 7000ms ease-in-out 0ms infinite,hraGOOiY_fade 7000ms linear 0ms infinite;}.hraGOOiY_29{stroke-dasharray:1830 1832;stroke-dashoffset:1831;animation:hraGOOiY_draw_29 7000ms ease-in-out 0ms infinite,hraGOOiY_fade 7000ms linear 0ms infinite;}.hraGOOiY_30{stroke-dasharray:749 751;stroke-dashoffset:750;animation:hraGOOiY_draw_30 7000ms ease-in-out 0ms infinite,hraGOOiY_fade 7000ms linear 0ms infinite;}.hraGOOiY_31{stroke-dasharray:748 750;stroke-dashoffset:749;animation:hraGOOiY_draw_31 7000ms ease-in-out 0ms infinite,hraGOOiY_fade 7000ms linear 0ms infinite;}.hraGOOiY_32{stroke-dasharray:38 40;stroke-dashoffset:39;animation:hraGOOiY_draw_32 7000ms ease-in-out 0ms infinite,hraGOOiY_fade 7000ms linear 0ms infinite;}.hraGOOiY_33{stroke-dasharray:534 536;stroke-dashoffset:535;animation:hraGOOiY_draw_33 7000ms ease-in-out 0ms infinite,hraGOOiY_fade 7000ms linear 0ms infinite;}.hraGOOiY_34{stroke-dasharray:31 33;stroke-dashoffset:32;animation:hraGOOiY_draw_34 7000ms ease-in-out 0ms infinite,hraGOOiY_fade 7000ms linear 0ms infinite;}@keyframes hraGOOiY_draw{100%{stroke-dashoffset:0;}}@keyframes hraGOOiY_fade{0%{stroke-opacity:1;}94.28571428571429%{stroke-opacity:1;}100%{stroke-opacity:0;}}@keyframes hraGOOiY_draw_0{11.428571428571429%{stroke-dashoffset: 313}49.42857142857143%{ stroke-dashoffset: 0;}100%{ stroke-dashoffset: 0;}}@keyframes hraGOOiY_draw_1{11.487394957983193%{stroke-dashoffset: 2540}49.48739495798319%{ stroke-dashoffset: 0;}100%{ stroke-dashoffset: 0;}}@keyframes hraGOOiY_draw_2{11.546218487394958%{stroke-dashoffset: 145}49.54621848739495%{ stroke-dashoffset: 0;}100%{ stroke-dashoffset: 0;}}@keyframes hraGOOiY_draw_3{11.605042016806722%{stroke-dashoffset: 2613}49.60504201680672%{ stroke-dashoffset: 0;}100%{ stroke-dashoffset: 0;}}@keyframes hraGOOiY_draw_4{11.663865546218489%{stroke-dashoffset: 1862}49.66386554621849%{ stroke-dashoffset: 0;}100%{ stroke-dashoffset: 0;}}@keyframes hraGOOiY_draw_5{11.722689075630251%{stroke-dashoffset: 7373}49.72268907563025%{ stroke-dashoffset: 0;}100%{ stroke-dashoffset: 0;}}@keyframes hraGOOiY_draw_6{11.781512605042018%{stroke-dashoffset: 1690}49.781512605042025%{ stroke-dashoffset: 0;}100%{ stroke-dashoffset: 0;}}@keyframes hraGOOiY_draw_7{11.840336134453782%{stroke-dashoffset: 1690}49.840336134453786%{ stroke-dashoffset: 0;}100%{ stroke-dashoffset: 0;}}@keyframes hraGOOiY_draw_8{11.899159663865547%{stroke-dashoffset: 1690}49.89915966386555%{ stroke-dashoffset: 0;}100%{ stroke-dashoffset: 0;}}@keyframes hraGOOiY_draw_9{11.957983193277311%{stroke-dashoffset: 182}49.957983193277315%{ stroke-dashoffset: 0;}100%{ stroke-dashoffset: 0;}}@keyframes hraGOOiY_draw_10{12.016806722689074%{stroke-dashoffset: 2540}50.016806722689076%{ stroke-dashoffset: 0;}100%{ stroke-dashoffset: 0;}}@keyframes hraGOOiY_draw_11{12.07563025210084%{stroke-dashoffset: 145}50.07563025210084%{ stroke-dashoffset: 0;}100%{ stroke-dashoffset: 0;}}@keyframes hraGOOiY_draw_12{12.134453781512605%{stroke-dashoffset: 3131}50.13445378151261%{ stroke-dashoffset: 0;}100%{ stroke-dashoffset: 0;}}@keyframes hraGOOiY_draw_13{12.193277310924369%{stroke-dashoffset: 113}50.193277310924366%{ stroke-dashoffset: 0;}100%{ stroke-dashoffset: 0;}}@keyframes hraGOOiY_draw_14{12.252100840336135%{stroke-dashoffset: 1569}50.252100840336134%{ stroke-dashoffset: 0;}100%{ stroke-dashoffset: 0;}}@keyframes hraGOOiY_draw_15{12.310924369747898%{stroke-dashoffset: 90}50.3109243697479%{ stroke-dashoffset: 0;}100%{ stroke-dashoffset: 0;}}@keyframes hraGOOiY_draw_16{12.369747899159664%{stroke-dashoffset: 2646}50.36974789915967%{ stroke-dashoffset: 0;}100%{ stroke-dashoffset: 0;}}@keyframes hraGOOiY_draw_17{12.428571428571429%{stroke-dashoffset: 2330}50.42857142857143%{ stroke-dashoffset: 0;}100%{ stroke-dashoffset: 0;}}@keyframes hraGOOiY_draw_18{12.487394957983193%{stroke-dashoffset: 3911}50.48739495798319%{ stroke-dashoffset: 0;}100%{ stroke-dashoffset: 0;}}@keyframes hraGOOiY_draw_19{12.546218487394958%{stroke-dashoffset: 1690}50.54621848739495%{ stroke-dashoffset: 0;}100%{ stroke-dashoffset: 0;}}@keyframes hraGOOiY_draw_20{12.605042016806722%{stroke-dashoffset: 2417}50.60504201680672%{ stroke-dashoffset: 0;}100%{ stroke-dashoffset: 0;}}@keyframes hraGOOiY_draw_21{12.663865546218489%{stroke-dashoffset: 2772}50.66386554621849%{ stroke-dashoffset: 0;}100%{ stroke-dashoffset: 0;}}@keyframes hraGOOiY_draw_22{12.722689075630253%{stroke-dashoffset: 1772}50.72268907563026%{ stroke-dashoffset: 0;}100%{ stroke-dashoffset: 0;}}@keyframes hraGOOiY_draw_23{12.781512605042018%{stroke-dashoffset: 2285}50.781512605042025%{ stroke-dashoffset: 0;}100%{ stroke-dashoffset: 0;}}@keyframes hraGOOiY_draw_24{12.84033613445378%{stroke-dashoffset: 2417}50.84033613445378%{ stroke-dashoffset: 0;}100%{ stroke-dashoffset: 0;}}@keyframes hraGOOiY_draw_25{12.899159663865548%{stroke-dashoffset: 1772}50.89915966386555%{ stroke-dashoffset: 0;}100%{ stroke-dashoffset: 0;}}@keyframes hraGOOiY_draw_26{12.957983193277311%{stroke-dashoffset: 2417}50.957983193277315%{ stroke-dashoffset: 0;}100%{ stroke-dashoffset: 0;}}@keyframes hraGOOiY_draw_27{13.016806722689076%{stroke-dashoffset: 1772}51.016806722689076%{ stroke-dashoffset: 0;}100%{ stroke-dashoffset: 0;}}@keyframes hraGOOiY_draw_28{13.07563025210084%{stroke-dashoffset: 2222}51.07563025210084%{ stroke-dashoffset: 0;}100%{ stroke-dashoffset: 0;}}@keyframes hraGOOiY_draw_29{13.134453781512603%{stroke-dashoffset: 1831}51.134453781512605%{ stroke-dashoffset: 0;}100%{ stroke-dashoffset: 0;}}@keyframes hraGOOiY_draw_30{13.19327731092437%{stroke-dashoffset: 750}51.193277310924366%{ stroke-dashoffset: 0;}100%{ stroke-dashoffset: 0;}}@keyframes hraGOOiY_draw_31{13.252100840336134%{stroke-dashoffset: 749}51.252100840336134%{ stroke-dashoffset: 0;}100%{ stroke-dashoffset: 0;}}@keyframes hraGOOiY_draw_32{13.310924369747898%{stroke-dashoffset: 39}51.3109243697479%{ stroke-dashoffset: 0;}100%{ stroke-dashoffset: 0;}}@keyframes hraGOOiY_draw_33{13.369747899159664%{stroke-dashoffset: 535}51.36974789915967%{ stroke-dashoffset: 0;}100%{ stroke-dashoffset: 0;}}@keyframes hraGOOiY_draw_34{13.428571428571429%{stroke-dashoffset: 32}51.42857142857142%{ stroke-dashoffset: 0;}100%{ stroke-dashoffset: 0;}}</style></svg>
