<?xml version="1.0" encoding="utf-8"?>
<!-- Generator: Adobe Illustrator 23.0.1, SVG Export Plug-In . SVG Version: 6.00 Build 0)  -->
<svg version="1.1" id="Layer_1" xmlns="http://www.w3.org/2000/svg" xmlns:xlink="http://www.w3.org/1999/xlink" x="0px" y="0px"
	 viewBox="0 0 800 600" style="enable-background:new 0 0 800 600;" xml:space="preserve">
<style type="text/css">
	.st0{fill:#2D353C;}
	.st1{fill:#007C40;}
	.st2{font-family:'Montserrat-Bold';}
	.st3{font-size:47.92px;}
	.st4{letter-spacing:9;}
	.st5{letter-spacing:10;}
	.st6{fill:none;stroke:#007C40;stroke-width:8;stroke-miterlimit:10;}
	.st7{fill:#20A82A;}
	.st8{fill:#187C1D;}
	.st9{fill:#105112;}
	.st10{fill:#FFFFFF;}
	.st11{fill:#5BD35E;}
</style>
<image style="overflow:visible;" width="1030" height="1030" xlink:href="FF905840131FF527.png"  transform="matrix(0.9711 0 0 0.9711 -121.7498 5147.7661)">
</image>
<title>Plant-Protector-resources</title>
<rect x="757.8" y="5122.4" class="st0" width="83.4" height="72.4"/>
<text transform="matrix(1 0 0 1 91.5703 486.8)" class="st1 st2 st3 st4">P</text>
<text transform="matrix(1 0 0 1 135.7502 486.8)" class="st1 st2 st3 st5">L</text>
<text transform="matrix(1 0 0 1 174.5601 486.8)" class="st1 st2 st3 st4">ANT </text>
<text transform="matrix(1 0 0 1 331.5 486.8)" class="st1 st2 st3 st4">P</text>
<text transform="matrix(1 0 0 1 375.68 486.8)" class="st1 st2 st3 st4">R</text>
<text transform="matrix(1 0 0 1 420.48 486.8)" class="st1 st2 st3 st4">O</text>
<text transform="matrix(1 0 0 1 470.03 486.8)" class="st1 st2 st3 st4">T</text>
<text transform="matrix(1 0 0 1 509.22 486.8)" class="st1 st2 st3 st4">E</text>
<text transform="matrix(1 0 0 1 550.86 486.8)" class="st1 st2 st3 st4">C</text>
<text transform="matrix(1 0 0 1 595.24 486.8)" class="st1 st2 st3 st4">T</text>
<text transform="matrix(1 0 0 1 633.95 486.8)" class="st1 st2 st3 st4">OR</text>
<g>
	<path class="st6" d="M233.8,281.8c3.3,3.1,8,4.1,12.3,2.8l82,69.1c-43.4,7.2-94.1,1.6-127.9-26.5c-36.6-32.2-50.8-87.6-50.7-135.6
		c33.2-6.8,70.8-5.6,102.4,5.9c51.5,18.6,73.7,70,81.4,120.7c1.2,8.1,2.2,16.3,2.6,24.5l-81.3-68.5c0.5-4.1-1-8.2-3.9-11
		c-5-4.6-12.9-4.2-17.4,0.9c-0.2,0.2-0.4,0.4-0.6,0.7C228.7,269.9,229.2,277.3,233.8,281.8z M347.4,239.9
		c-21.3-53-0.8-105.2,34.7-146.5c7.4-8.8,15.5-17.1,24.1-24.8c36.2,30.9,67.5,77.3,68.2,125.6c-0.6,45.3-28.2,89-61.6,119.7
		c0.3-36.4,0.6-72.8,0.9-109.2c3.6-2.3,5.8-6.2,5.8-10.5c0-6.9-5.5-12.5-12.4-12.7c-6.8-0.1-12.1,5.7-12.5,12.3
		c-0.2,4.3,2,8.4,5.6,10.8c-0.3,36.4-0.6,72.8-0.9,109.2C377.3,293.2,358.4,267.3,347.4,239.9L347.4,239.9z M610.8,327
		c-33.8,28.2-84.5,33.9-127.9,26.8l81.9-69.3c4.2,1.3,8.8,0.3,12.1-2.6c4.9-4.3,5.3-12.1,1.4-17.2c-4.2-5.3-11.9-6.3-17.2-2.1
		c0,0-0.1,0.1-0.1,0.1c-3.4,2.8-5.2,7.1-4.6,11.5L475,342.9c1.1-28.1,7.4-57.1,18.7-82.4c11.1-24.8,28.4-45.7,53-58
		c23.2-11.6,50-15.1,75.7-14.8c13,0,26,1.2,38.8,3.6C661.4,239.3,647.4,294.6,610.8,327z"/>
	<circle class="st6" cx="405.4" cy="375.6" r="22.8"/>
</g>
<rect x="1056.3" y="5193.4" style="fill:none;" width="836.6" height="469.1"/>
<text transform="matrix(1 0 0 1 1056.3058 5235.9805)"><tspan x="0" y="0" style="font-family:'MyriadPro-Regular'; font-size:60px;">Page 3:</tspan><tspan x="0" y="72" style="font-family:'MyriadPro-Regular'; font-size:60px;">- icons</tspan></text>
<rect x="-674.8" y="5201.2" style="fill:none;" width="477" height="453.5"/>
<text transform="matrix(1 0 0 1 -674.7606 5243.7983)"><tspan x="0" y="0" style="font-family:'MyriadPro-Regular'; font-size:60px;">&gt;THESE ARE FLEX </tspan><tspan x="0" y="72" style="font-family:'MyriadPro-Regular'; font-size:60px;">BOXES 1&amp;2 in</tspan><tspan x="0" y="144" style="font-family:'MyriadPro-Regular'; font-size:60px;">SettingsScreen</tspan></text>
<rect x="-3698.7" y="847.5" style="fill:none;" width="2345.7" height="1340.1"/>
<text transform="matrix(1 0 0 1 -3698.7146 989.5388)"><tspan x="0" y="0" style="font-family:'MyriadPro-Regular'; font-size:200px;">CSS/styling TO DO: </tspan><tspan x="0" y="240" style="font-family:'MyriadPro-Regular'; font-size:200px;">- style it</tspan><tspan x="0" y="480" style="font-family:'MyriadPro-Regular'; font-size:200px;">-font (lato or oswald) </tspan><tspan x="0" y="720" style="font-family:'MyriadPro-Regular'; font-size:200px;">- icons (use ionicons?) </tspan><tspan x="0" y="960" style="font-family:'MyriadPro-Regular'; font-size:200px;">- colors (green) </tspan></text>
<rect x="-2012.5" y="3943.4" class="st7" width="422.2" height="422.2"/>
<rect x="-2012.5" y="4436.3" class="st8" width="422.2" height="422.2"/>
<rect x="-2012.5" y="4936.7" class="st9" width="422.2" height="422.2"/>
<g>
	<path class="st7" d="M-1827,3244c-11.2,11.2-11.6,30.1-0.9,41.8c25.3,27.9,63.4-12.2,41.4-40
		C-1797.6,3234.2-1815.1,3232.1-1827,3244z"/>
	<path class="st7" d="M-1979.4,3171.8c3.3,3.1,8,4.1,12.3,2.8l82,69.1c-43.4,7.2-94.1,1.6-128-26.5c-36.6-32.2-50.8-87.5-50.7-135.6
		c33.2-6.8,70.8-5.6,102.4,5.8c51.5,18.6,73.7,70,81.4,120.7c1.2,8.1,2.2,16.3,2.6,24.6l-81.3-68.5c0.5-4.1-1-8.2-4-11
		c-5-4.6-12.9-4.2-17.4,0.9c-0.2,0.2-0.4,0.4-0.6,0.7C-1984.5,3160-1984,3167.3-1979.4,3171.8z M-1865.9,3129.9
		c-21.3-53-0.8-105.2,34.7-146.5c7.4-8.8,15.5-17.1,24.1-24.8c36.2,30.9,67.5,77.3,68.2,125.6c-0.6,45.3-28.2,89-61.6,119.7
		c0.3-36.4,0.6-72.8,0.9-109.2c3.6-2.3,5.8-6.2,5.8-10.5c0-6.9-5.5-12.5-12.4-12.7c-6.8-0.1-12.2,5.7-12.4,12.3
		c-0.2,4.3,2,8.4,5.6,10.8c-0.3,36.4-0.6,72.8-0.9,109.1C-1835.9,3183.2-1854.8,3157.3-1865.9,3129.9L-1865.9,3129.9z M-1602.4,3217
		c-33.8,28.2-84.5,33.9-127.9,26.8l81.9-69.3c4.2,1.3,8.8,0.3,12.1-2.6c4.9-4.3,5.3-12.1,1.4-17.2c-4.2-5.3-11.9-6.3-17.2-2.1
		c0,0-0.1,0.1-0.1,0.1c-3.4,2.8-5.2,7.1-4.6,11.5l-81.3,68.7c1.1-28.1,7.4-57.1,18.7-82.4c11.1-24.8,28.4-45.7,53-58
		c23.2-11.6,50-15.1,75.7-14.8c13,0,26,1.2,38.8,3.6C-1551.8,3129.4-1565.8,3184.6-1602.4,3217z"/>
	<text transform="matrix(1 0 0 1 -2121.6538 3376.8203)" class="st7 st2 st3 st4">P</text>
	<text transform="matrix(1 0 0 1 -2077.4739 3376.8203)" class="st7 st2 st3 st5">L</text>
	<text transform="matrix(1 0 0 1 -2038.6637 3376.8203)" class="st7 st2 st3 st4">ANT </text>
	<text transform="matrix(1 0 0 1 -1881.724 3376.8203)" class="st7 st2 st3 st4">P</text>
	<text transform="matrix(1 0 0 1 -1837.5438 3376.8203)" class="st7 st2 st3 st4">R</text>
	<text transform="matrix(1 0 0 1 -1792.7438 3376.8203)" class="st7 st2 st3 st4">O</text>
	<text transform="matrix(1 0 0 1 -1743.194 3376.8203)" class="st7 st2 st3 st4">T</text>
	<text transform="matrix(1 0 0 1 -1704.0038 3376.8203)" class="st7 st2 st3 st4">E</text>
	<text transform="matrix(1 0 0 1 -1662.3639 3376.8203)" class="st7 st2 st3 st4">C</text>
	<text transform="matrix(1 0 0 1 -1617.9838 3376.8203)" class="st7 st2 st3 st4">T</text>
	<text transform="matrix(1 0 0 1 -1579.2738 3376.8203)" class="st7 st2 st3 st4">OR</text>
	<circle class="st7" cx="-1807.8" cy="3265.6" r="22.8"/>
</g>
<rect x="-1284.2" y="3235.4" class="st10" width="1080" height="484.8"/>
<g>
	<path class="st7" d="M-750.7,3497.6c-6.9,6.9-7.1,18.6-0.6,25.8c15.6,17.2,39.1-7.5,25.6-24.7
		C-732.6,3491.5-743.4,3490.2-750.7,3497.6z"/>
	<path class="st7" d="M-844.8,3453c2,1.9,5,2.6,7.6,1.7l50.6,42.7c-26.8,4.4-58.1,1-79-16.4c-22.6-19.9-31.4-54.1-31.3-83.7
		c20.5-4.2,43.7-3.5,63.2,3.6c31.8,11.5,45.5,43.2,50.3,74.5c0.8,5,1.3,10.1,1.6,15.2l-50.2-42.3c0.3-2.5-0.6-5-2.4-6.8
		c-3.1-2.8-7.9-2.6-10.8,0.5c-0.1,0.1-0.2,0.3-0.4,0.4C-848,3445.7-847.7,3450.2-844.8,3453z M-774.7,3427.1
		c-13.2-32.7-0.5-65,21.4-90.5c4.6-5.4,9.6-10.6,14.9-15.3c22.4,19.1,41.7,47.7,42.1,77.5c-0.4,28-17.4,55-38,73.9
		c0.2-22.5,0.4-44.9,0.5-67.4c2.2-1.4,3.6-3.8,3.6-6.5c0-4.2-3.4-7.7-7.6-7.8c-4.2-0.1-7.5,3.5-7.7,7.6c-0.1,2.7,1.2,5.2,3.5,6.6
		c-0.2,22.5-0.4,44.9-0.5,67.4C-756.2,3460-767.9,3444-774.7,3427.1L-774.7,3427.1z M-612,3480.9c-20.9,17.4-52.2,20.9-79,16.5
		l50.6-42.8c2.6,0.8,5.4,0.2,7.5-1.6c3.1-2.7,3.3-7.5,0.9-10.6c-2.6-3.3-7.3-3.9-10.6-1.3c0,0,0,0-0.1,0.1c-2.1,1.7-3.2,4.4-2.9,7.1
		l-50.2,42.4c0.7-17.4,4.6-35.3,11.6-50.9c6.9-15.3,17.6-28.2,32.7-35.8c14.3-7.2,30.9-9.3,46.7-9.1c8,0,16.1,0.8,24,2.2
		C-580.8,3426.8-589.5,3460.9-612,3480.9z"/>
	<text transform="matrix(1 0 0 1 -932.6372 3579.5671)" class="st7 st2" style="font-size:29.588px; letter-spacing:5;">P</text>
	<text transform="matrix(1 0 0 1 -905.3584 3579.5671)" class="st7 st2" style="font-size:29.588px; letter-spacing:6;">L</text>
	<text transform="matrix(1 0 0 1 -881.3955 3579.5671)" class="st7 st2" style="font-size:29.588px; letter-spacing:5;">ANT </text>
	<text transform="matrix(1 0 0 1 -784.4932 3579.5671)" class="st7 st2" style="font-size:29.588px; letter-spacing:5;">P</text>
	<text transform="matrix(1 0 0 1 -757.2148 3579.5671)" class="st7 st2" style="font-size:29.588px; letter-spacing:5;">R</text>
	<text transform="matrix(1 0 0 1 -729.5532 3579.5671)" class="st7 st2" style="font-size:29.588px; letter-spacing:5;">O</text>
	<text transform="matrix(1 0 0 1 -698.9585 3579.5671)" class="st7 st2" style="font-size:29.588px; letter-spacing:5;">T</text>
	<text transform="matrix(1 0 0 1 -674.7607 3579.5671)" class="st7 st2" style="font-size:29.588px; letter-spacing:5;">E</text>
	<text transform="matrix(1 0 0 1 -649.0503 3579.5671)" class="st7 st2" style="font-size:29.588px; letter-spacing:5;">C</text>
	<text transform="matrix(1 0 0 1 -621.6479 3579.5671)" class="st7 st2" style="font-size:29.588px; letter-spacing:5;">T</text>
	<text transform="matrix(1 0 0 1 -597.7466 3579.5671)" class="st7 st2" style="font-size:29.588px; letter-spacing:5;">OR</text>
	<circle class="st7" cx="-738.9" cy="3510.9" r="14.1"/>
</g>
<rect x="-1284.2" y="3661.6" class="st7" width="1080" height="242.4"/>
<rect x="-1284.8" y="3751.1" style="fill:none;" width="1086.8" height="77.3"/>
<text transform="matrix(1 0 0 1 -1038.0464 3809.4072)" class="st10" style="font-family:'Lato-Light'; font-size:80px;">WEATHER INFO</text>
<rect x="-1284.2" y="3962.6" class="st11" width="1080" height="874.6"/>
<rect x="-2013.4" y="3450.5" class="st11" width="422.2" height="422.2"/>
<rect x="-150.8" y="3376.8" class="st7" width="1080" height="127.7"/>
<rect x="-150.8" y="3504.5" class="st10" width="1080" height="305.2"/>
<rect x="-73.9" y="3421.6" style="fill:none;" width="836.6" height="48.9"/>
<text transform="matrix(1 0 0 1 -73.9436 3460.1604)" class="st10" style="font-family:'Lato-Light'; font-size:53px;">CAROLINA REAPER</text>
<rect x="-69.8" y="3537.6" style="fill:none;" width="930.5" height="211.1"/>
<text transform="matrix(1 0 0 1 -69.7575 3567.4563)"><tspan x="0" y="0" style="font-family:'Lato-Light'; font-size:41px;">Lorem ipsum dolor sit amet, consectetuer adipiscing </tspan><tspan x="0" y="49.2" style="font-family:'Lato-Light'; font-size:41px;">elit, sed diam nonummy nibh euismod tincidunt ut </tspan><tspan x="0" y="98.4" style="font-family:'Lato-Light'; font-size:41px;">laoreet dolore magna aliquam erat volutpat. Ut wisi </tspan><tspan x="0" y="147.6" style="font-family:'Lato-Light'; font-size:41px;">enim ad minim veniam, quis nostrud exerci tation ul</tspan></text>
<rect x="-150.8" y="3809.8" class="st7" width="1080" height="127.7"/>
<rect x="-73.9" y="3854.5" style="fill:none;" width="836.6" height="48.9"/>
<text transform="matrix(1 0 0 1 -73.9436 3893.0955)" class="st10" style="font-family:'Lato-Light'; font-size:53px;">HABENERO</text>
<rect x="-150.8" y="3953.8" class="st7" width="1080" height="127.7"/>
<rect x="-73.9" y="3998.5" style="fill:none;" width="836.6" height="48.9"/>
<text transform="matrix(1 0 0 1 -73.9436 4037.093)" class="st10" style="font-family:'Lato-Light'; font-size:53px;">GHOST PEPPER</text>
<rect x="-1088.9" y="4506.7" style="fill:none;" width="735" height="375.3"/>
<text transform="matrix(1 0 0 1 -853.8532 4536.5513)"><tspan x="0" y="0" class="st10" style="font-family:'Lato-Light'; font-size:41px;">INFO HERE???</tspan><tspan x="-69.1" y="49.2" class="st10" style="font-family:'Lato-Light'; font-size:41px;">- BACKGROUND PIC? </tspan><tspan x="-109.1" y="98.4" class="st10" style="font-family:'Lato-Light'; font-size:41px;">- EXPLAINATION OF APP?</tspan><tspan x="-121.8" y="147.6" class="st10" style="font-family:'Lato-Light'; font-size:41px;">- SUPPLEMENTARY INFO....</tspan></text>
<rect x="39.3" y="4352.3" style="fill:none;" width="699.8" height="215"/>
<text transform="matrix(1 0 0 1 88.0589 4382.126)"><tspan x="0" y="0" style="font-family:'Lato-Light'; font-size:41px;">USE DROP DOWN ACCORDION </tspan><tspan x="59.6" y="49.2" style="font-family:'Lato-Light'; font-size:41px;">EFFECT FROM IONICONS</tspan></text>
<g id="_x35_HCnFG.tif">
	
		<image style="overflow:visible;" width="510" height="250" id="Layer_0_1_" xlink:href="FF905840131FF525.png"  transform="matrix(2.1188 0 0 2.0485 -1282.8097 3903.9604)">
	</image>
</g>
<rect x="634" y="5221.4" style="fill:none;" width="332.3" height="41.7"/>
<text transform="matrix(1 0 0 1 787.3323 5251.313)" style="fill:#D9E0E7; font-family:'Lato-Light'; font-size:41px;">X</text>
<rect x="634" y="5144.1" style="fill:none;" width="332.3" height="41.7"/>
<text transform="matrix(1 0 0 1 788.2137 5173.9878)" class="st10" style="font-family:'Lato-Light'; font-size:41px;">+</text>
<g>
	<path class="st7" d="M93.6,2970.7c-2.4,2.4-2.4,6.3-0.2,8.8c5.3,5.9,13.3-2.6,8.7-8.4C99.8,2968.7,96.1,2968.2,93.6,2970.7z"/>
	<path class="st7" d="M61.6,2955.6c0.7,0.6,1.7,0.9,2.6,0.6l17.2,14.5c-9.1,1.5-19.8,0.3-26.9-5.6c-7.7-6.8-10.7-18.4-10.7-28.5
		c7-1.4,14.9-1.2,21.5,1.2c10.8,3.9,15.5,14.7,17.1,25.4c0.3,1.7,0.5,3.4,0.6,5.2L66,2954c0.1-0.9-0.2-1.7-0.8-2.3
		c-1.1-1-2.7-0.9-3.7,0.2c0,0-0.1,0.1-0.1,0.1C60.5,2953.1,60.6,2954.6,61.6,2955.6z M85.5,2946.7c-4.5-11.1-0.2-22.1,7.3-30.8
		c1.6-1.9,3.3-3.6,5.1-5.2c7.6,6.5,14.2,16.3,14.3,26.4c-0.1,9.5-5.9,18.7-13,25.2c0.1-7.7,0.1-15.3,0.2-23c0.8-0.5,1.2-1.3,1.2-2.2
		c0-1.4-1.2-2.6-2.6-2.7c-1.4,0-2.6,1.2-2.6,2.6c0,0.9,0.4,1.8,1.2,2.3c-0.1,7.7-0.1,15.3-0.2,23
		C91.8,2957.9,87.8,2952.5,85.5,2946.7L85.5,2946.7z M140.9,2965.1c-7.1,5.9-17.8,7.1-26.9,5.6l17.2-14.6c0.9,0.3,1.9,0.1,2.6-0.6
		c1-0.9,1.1-2.6,0.3-3.6c-0.9-1.1-2.5-1.3-3.6-0.4c0,0,0,0,0,0c-0.7,0.6-1.1,1.5-1,2.4l-17.1,14.5c0.2-5.9,1.6-12,3.9-17.3
		c2.3-5.2,6-9.6,11.1-12.2c4.9-2.4,10.5-3.2,15.9-3.1c2.7,0,5.5,0.3,8.2,0.8C151.5,2946.6,148.6,2958.2,140.9,2965.1z"/>
	<text transform="matrix(1 0 0 1 31.6721 2998.6572)" class="st7 st2" style="font-size:10.0774px; letter-spacing:1;">P</text>
	<text transform="matrix(1 0 0 1 40.9631 2998.6572)" class="st7 st2" style="font-size:10.0774px; letter-spacing:2;">L</text>
	<text transform="matrix(1 0 0 1 49.1248 2998.6572)" class="st7 st2" style="font-size:10.0774px; letter-spacing:2;">ANT </text>
	<text transform="matrix(1 0 0 1 82.1287 2998.6572)" class="st7 st2" style="font-size:10.0774px; letter-spacing:1;">P</text>
	<text transform="matrix(1 0 0 1 91.4197 2998.6572)" class="st7 st2" style="font-size:10.0774px; letter-spacing:2;">R</text>
	<text transform="matrix(1 0 0 1 100.8406 2998.6572)" class="st7 st2" style="font-size:10.0774px; letter-spacing:1;">O</text>
	<text transform="matrix(1 0 0 1 111.261 2998.6572)" class="st7 st2" style="font-size:10.0774px; letter-spacing:2;">T</text>
	<text transform="matrix(1 0 0 1 119.5027 2998.6572)" class="st7 st2" style="font-size:10.0774px; letter-spacing:2;">E</text>
	<text transform="matrix(1 0 0 1 128.2595 2998.6572)" class="st7 st2" style="font-size:10.0774px; letter-spacing:1;">C</text>
	<text transform="matrix(1 0 0 1 137.5925 2998.6572)" class="st7 st2" style="font-size:10.0774px; letter-spacing:1;">T</text>
	<text transform="matrix(1 0 0 1 145.7332 2998.6572)" class="st7 st2" style="font-size:10.0774px; letter-spacing:2;">OR</text>
	<circle class="st7" cx="97.7" cy="2975.3" r="4.8"/>
</g>
<image style="overflow:visible;" width="1080" height="1920" xlink:href="FF905840131FF52B.png"  transform="matrix(1 0 0 1 -139.4667 847.5401)">
</image>
<image style="overflow:visible;" width="1080" height="1920" xlink:href="FF905840131FF52D.png"  transform="matrix(1 0 0 1 -1271.6669 847.5401)">
</image>
</svg>
